<?xml version="1.0" encoding="utf-8"?>
<!-- Generator: Adobe Illustrator 24.1.2, SVG Export Plug-In . SVG Version: 6.00 Build 0)  -->
<svg version="1.1" id="Слой_1" xmlns="http://www.w3.org/2000/svg" xmlns:xlink="http://www.w3.org/1999/xlink" x="0px" y="0px"
	 viewBox="0 0 128 128" style="enable-background:new 0 0 128 128;" xml:space="preserve">
<style type="text/css">
	.st0{fill:#FFFFFF;}
	.st1{fill:#5B4282;}
</style>
<g>
	<path class="st0" d="M79.63,59.07c3.23-1.6,5.64-3.69,7.24-6.29c1.6-2.6,2.4-5.36,2.4-8.31c0-3.16-0.9-6.17-2.7-9.07
		c-1.8-2.9-4.29-5-7.47-6.39c-3.18-1.39-7.4-2-12.67-2H39v69h27.84c4.39,0,8.09-0.52,11.11-1.29c3.02-0.77,5.54-2.04,7.54-3.55
		c2.01-1.5,3.69-3.64,5.05-6.41c1.36-2.77,2.04-5.77,2.04-9c0-4.01-1.12-7.49-3.36-10.43C87,62.37,83.79,60.29,79.63,59.07z M48,36
		h15.46c4.95,0,8.44-0.2,10.48,0.45c2.04,0.64,3.6,1.32,4.7,3.06s1.65,3.77,1.65,6.05c0,2.41-0.59,4.45-1.76,6.04
		c-1.17,1.6-2.92,2.8-5.24,3.49c-1.76,0.53-4.65,0.91-8.7,0.91H48V36z M81.79,81.6c-0.91,1.68-2.07,3.01-3.48,3.88
		c-1.41,0.88-3.17,1.61-5.26,1.98c-1.19,0.22-3.26,0.54-6.2,0.54H48V65h17.62c4.39,0,7.75-0.16,10.08,0.6
		c2.34,0.77,4.16,1.84,5.48,3.73c1.32,1.9,1.97,3.87,1.97,6.44C83.15,77.96,82.7,79.93,81.79,81.6z"/>
	<path class="st1" d="M109.38,2H17.63C8.44,2,1,9.44,1,18.63v91.75C1,119.56,8.44,127,17.63,127h91.75
		c9.18,0,16.63-7.44,16.63-16.63V18.63C126,9.44,118.56,2,109.38,2z M90.55,84.74c-1.36,2.77-3.05,4.91-5.05,6.41
		c-2.01,1.5-4.52,2.78-7.54,3.55C74.93,95.48,71.23,96,66.84,96H39V27h27.42c5.26,0,9.49,0.61,12.67,2c3.18,1.39,5.67,3.5,7.47,6.39
		c1.8,2.9,2.7,5.91,2.7,9.07c0,2.95-0.8,5.71-2.4,8.31c-1.6,2.6-4.01,4.69-7.24,6.29c4.17,1.22,7.37,3.3,9.61,6.25
		c2.24,2.95,3.36,6.42,3.36,10.43C92.6,78.97,91.92,81.97,90.55,84.74z"/>
	<path class="st1" d="M73.28,55.09c2.32-0.69,4.06-1.89,5.24-3.49c1.18-1.6,1.76-3.63,1.76-6.04c0-2.29-0.55-4.31-1.65-6.05
		s-2.66-2.41-4.7-3.06C71.9,35.8,68.41,36,63.46,36H48v20h16.59C68.63,56,71.53,55.62,73.28,55.09z"/>
	<path class="st1" d="M75.7,65.6c-2.33-0.77-5.69-0.6-10.08-0.6H48v23h18.84c2.94,0,5.01-0.32,6.2-0.54c2.1-0.38,3.85-1.1,5.26-1.98
		c1.41-0.88,2.57-2.2,3.48-3.88c0.91-1.68,1.36-3.64,1.36-5.83c0-2.57-0.66-4.54-1.97-6.44C79.86,67.44,78.04,66.37,75.7,65.6z"/>
</g>
</svg>
