<?xml version="1.0" encoding="utf-8"?>
<!-- Generator: Adobe Illustrator 24.1.2, SVG Export Plug-In . SVG Version: 6.00 Build 0)  -->
<svg version="1.1" id="Слой_1" xmlns="http://www.w3.org/2000/svg" xmlns:xlink="http://www.w3.org/1999/xlink" x="0px" y="0px"
	 viewBox="0 0 104.1 28" style="enable-background:new 0 0 104.1 28;" xml:space="preserve">
<style type="text/css">
	.st0{fill:#333333;}
	.st1{enable-background:new    ;}
	.st2{fill:#FFFFFF;}
</style>
<g shape-rendering="crispEdges">
	<rect class="st0" width="104.1" height="28"/>
</g>
<g text-rendering="geometricPrecision">
	<g class="st1">
		<path class="st2" d="M47.4,17.5h-5.3v-7.3h5.3v1.4H44v1.3h3.1v1.4H44v1.8h3.4V17.5z"/>
		<path class="st2" d="M54,15h-3.7v-1.4H54V15z"/>
		<path class="st2" d="M64.8,17.5H63v-4.9l-1.3,3.2h-1.3L59,12.6v4.9h-1.8v-7.3h2.2l1.6,3.6l1.6-3.6h2.2V17.5z"/>
		<path class="st2" d="M75.1,17.5h-1.9L72.7,16H70l-0.5,1.5h-1.9l2.7-7.3h2.2L75.1,17.5z M72.2,14.7l-0.9-2.6l-0.9,2.6H72.2z"/>
		<path class="st2" d="M81.8,17.5h-4.3v-1.3h1.2v-4.7h-1.2v-1.3h4.3v1.3h-1.2v4.7h1.2V17.5z"/>
		<path class="st2" d="M90.3,17.5H85v-7.3h1.9v5.9h3.4V17.5z"/>
	</g>
</g>
<g transform="translate(128 128) scale(0.72 0.72)">
	<g transform="translate(-175.05 -175.05000000000004) scale(3.89 3.89)">
		<path class="st2" d="M8.5,6.6H4.2c-0.6,0-1-0.5-1-1V2.9c0-0.6,0.5-1,1-1h4.3c0.6,0,1,0.5,1,1v2.7C9.5,6.2,9,6.6,8.5,6.6z M4.2,2.2
			c-0.4,0-0.7,0.3-0.7,0.7v2.7c0,0.4,0.3,0.7,0.7,0.7h4.3c0.4,0,0.7-0.3,0.7-0.7V2.9c0-0.4-0.3-0.7-0.7-0.7H4.2z"/>
		<path class="st2" d="M3.9,2.9c0.8,0.7,1.5,1.5,2.3,2.2c0.1,0.1,0.4-0.1,0.2-0.2C5.7,4.2,4.9,3.4,4.1,2.7C4,2.6,3.8,2.8,3.9,2.9
			L3.9,2.9z"/>
		<path class="st2" d="M6.4,5.1c0.8-0.7,1.5-1.5,2.3-2.2c0.1-0.1-0.1-0.4-0.2-0.2C7.7,3.4,7,4.2,6.2,4.9C6.1,5.1,6.3,5.3,6.4,5.1
			L6.4,5.1z"/>
		<path class="st2" d="M8.7,5.7c-0.5-0.5-1-1-1.5-1.4C7,4.1,6.8,4.3,7,4.4c0.5,0.5,1,1,1.5,1.4C8.6,6,8.8,5.8,8.7,5.7L8.7,5.7z"/>
		<path class="st2" d="M4.2,5.9c0.5-0.5,1-1,1.5-1.4c0.1-0.1-0.1-0.4-0.2-0.2c-0.5,0.5-1,1-1.5,1.4C3.8,5.8,4,6,4.2,5.9L4.2,5.9z"/>
	</g>
</g>
</svg>
