<?xml version="1.0" encoding="utf-8"?>
<!-- Generator: Adobe Illustrator 27.0.0, SVG Export Plug-In . SVG Version: 6.00 Build 0)  -->
<svg version="1.1" id="Layer_1" xmlns="http://www.w3.org/2000/svg" xmlns:xlink="http://www.w3.org/1999/xlink" x="0px" y="0px"
	 viewBox="0 0 24 18" style="enable-background:new 0 0 24 18;" xml:space="preserve">
<style type="text/css">
	.st0{fill:#303C42;}
	.st1{fill:#42A5F5;}
	.st2{opacity:0.1;enable-background:new    ;}
	.st3{fill:#FFFFFF;}
	.st4{fill:url(#SVGID_1_);}
</style>
<path class="st0" d="M23.8,8.1c-0.1,0-1.5-0.9-2.8-0.7c-0.3-1.4-1.6-2.2-1.6-2.3c-0.2-0.1-0.5-0.1-0.6,0.1c-0.1,0.1-1,1.1-0.7,3.3
	c0,0.1,0,0.3-0.1,0.4C17.7,8.9,17.6,9,17.4,9H17V6.5C17,6.2,16.8,6,16.5,6H14V0.5C14,0.2,13.8,0,13.5,0h-3C10.2,0,10,0.2,10,0.5V3
	H4.5C4.2,3,4,3.2,4,3.5V6H1.5C1.2,6,1,6.2,1,6.5V9H0.5C0.2,9,0,9.2,0,9.5C0,17.2,5.6,18,8,18c6.2,0,10.5-3.8,12.4-7.1
	c2.5-0.4,3.5-2.1,3.6-2.2C24.1,8.5,24,8.2,23.8,8.1z"/>
<path class="st1" d="M14,7h2v2h-2V7z M11,7h2v2h-2V7z M8,7h2v2H8V7z M5,7h2v2H5V7z M11,4h2v2h-2V4z M11,1h2v2h-2V1z M8,4h2v2H8V4z
	 M5,4h2v2H5V4z M2,7h2v2H2V7z"/>
<path class="st1" d="M20,10c-0.2,0-0.3,0.1-0.4,0.3C17.9,13.4,13.9,17,8,17c-2.5,0-6.8-0.9-7-7h16.4c0.4,0,0.8-0.2,1.1-0.5
	c0.3-0.3,0.4-0.8,0.4-1.2c-0.1-1,0.1-1.7,0.2-2.1C19.5,6.6,20,7.2,20,8c0,0.2,0.1,0.3,0.2,0.4c0.1,0.1,0.3,0.1,0.5,0
	c0.6-0.3,1.4,0,2,0.2C22.3,9.1,21.4,9.8,20,10z"/>
<path class="st2" d="M20,9.5c-0.2,0-0.3,0.1-0.4,0.3c-1.7,3.1-5.7,6.8-11.6,6.8c-2.5,0-6.5-0.9-7-6.5h0c0.2,6.1,4.4,7,7,7
	c5.9,0,9.9-3.6,11.6-6.8c0.1-0.1,0.2-0.2,0.4-0.3c1.4-0.2,2.3-0.9,2.7-1.3c-0.1-0.1-0.3-0.1-0.4-0.1C21.9,8.9,21.1,9.3,20,9.5z"/>
<circle class="st0" cx="5" cy="13" r="1"/>
<circle class="st3" cx="5.5" cy="12.7" r="0.3"/>
<linearGradient id="SVGID_1_" gradientUnits="userSpaceOnUse" x1="1.5566" y1="14.8049" x2="21.3009" y2="5.5987" gradientTransform="matrix(1 0 0 -1 0 20)">
	<stop  offset="0" style="stop-color:#FFFFFF;stop-opacity:0.2"/>
	<stop  offset="1" style="stop-color:#FFFFFF;stop-opacity:0"/>
</linearGradient>
<path class="st4" d="M23.8,8.1c-0.1,0-1.5-0.9-2.8-0.7c-0.3-1.4-1.6-2.2-1.6-2.3c-0.2-0.1-0.5-0.1-0.6,0.1c-0.1,0.1-1,1.1-0.7,3.3
	c0,0.1,0,0.3-0.1,0.4C17.7,8.9,17.6,9,17.4,9H17V6.5C17,6.2,16.8,6,16.5,6H14V0.5C14,0.2,13.8,0,13.5,0h-3C10.2,0,10,0.2,10,0.5V3
	H4.5C4.2,3,4,3.2,4,3.5V6H1.5C1.2,6,1,6.2,1,6.5V9H0.5C0.2,9,0,9.2,0,9.5C0,17.2,5.6,18,8,18c6.2,0,10.5-3.8,12.4-7.1
	c2.5-0.4,3.5-2.1,3.6-2.2C24.1,8.5,24,8.2,23.8,8.1z"/>
</svg>
