<?xml version="1.0" encoding="utf-8"?>
<!-- Generator: Adobe Illustrator 24.1.2, SVG Export Plug-In . SVG Version: 6.00 Build 0)  -->
<svg version="1.1" id="Слой_1" xmlns="http://www.w3.org/2000/svg" xmlns:xlink="http://www.w3.org/1999/xlink" x="0px" y="0px"
	 viewBox="0 0 512 512" style="enable-background:new 0 0 512 512;" xml:space="preserve">
<style type="text/css">
	.st0{fill:#6682BA;}
</style>
<g>
	<g>
		<path class="st0" d="M395.77,362.14c-0.65,0-1.3,0-1.95-0.01h-3.04c-0.71,0-1.43-0.05-2.16-0.15l12.82-64.09h4.07
			c1.58,0,3.27-0.07,5.01-0.22c0.64-0.01,1.31-0.01,1.96-0.01c10.58,0,19.57,1.09,26.71,3.25c7.55,2.24,10.09,10.91,7.54,25.79
			c-3.13,17.82-9.32,28.37-18.38,31.34C419.65,360.76,408.68,362.14,395.77,362.14C395.77,362.14,395.77,362.14,395.77,362.14z"/>
		<path d="M412.5,298.03c10.54,0,19.49,1.09,26.6,3.23c7.34,2.17,9.79,10.71,7.27,25.37c-3.11,17.68-9.21,28.12-18.12,31.05
			c-8.68,2.72-19.61,4.09-32.49,4.09c-0.64,0-1.29,0-1.95-0.01h-3.03c-0.56,0-1.13-0.03-1.71-0.1l12.68-63.4h3.76
			c1.58,0,3.27-0.07,5.02-0.22C411.2,298.04,411.85,298.03,412.5,298.03 M412.5,297.28c-0.66,0-1.33,0-2,0.01
			c-1.73,0.14-3.39,0.22-4.98,0.22c-1.39,0-2.85,0-4.38,0l-12.96,64.78c0.87,0.14,1.73,0.22,2.6,0.22c1.01,0,2.02,0,3.03,0
			c0.66,0.01,1.31,0.01,1.95,0.01c13,0,23.91-1.37,32.71-4.13c9.24-3.03,15.46-13.58,18.63-31.63c2.6-15.17,0-23.91-7.8-26.22
			C432.1,298.37,423.17,297.28,412.5,297.28L412.5,297.28z"/>
	</g>
	<g>
		<path class="st0" d="M10.38,501.63V9.38h492.25v492.25H10.38z M344.39,428.31h30.88l8.23-41.17h25.69c8.8,0,17.44-1.02,25.66-3.04
			c8.26-2.03,16.12-6.88,23.36-14.4c5.92-5.92,10.61-12.66,13.94-20.04c3.47-7.37,5.74-14.99,6.75-22.64
			c2.6-16.78,0.03-30.22-7.66-39.93c-7.7-9.73-20.26-14.73-37.34-14.88h-58.37L344.39,428.31z M87.54,428.31h30.88l8.23-41.17h25.69
			c8.8,0,17.44-1.02,25.65-3.04c8.26-2.03,16.12-6.88,23.36-14.4c5.92-5.92,10.61-12.66,13.94-20.04
			c3.47-7.37,5.74-14.98,6.75-22.64c2.6-16.78,0.03-30.21-7.66-39.93c-7.7-9.73-20.26-14.73-37.34-14.88h-58.37L87.54,428.31z
			 M296.49,298.32c7.5,0,12.43,1.48,14.65,4.4c2.23,2.93,2.65,8,1.23,15.08l-13.96,69.34h31.1l14.58-72.45
			c3.05-16.26,0.82-27.46-6.63-33.3c-7.25-5.8-18.41-8.89-33.16-9.18h-26.41l8.45-41.38h-30.66l-31.35,156.31h30.66l17.76-89.04
			L296.49,298.32z"/>
		<path d="M502.25,9.75v491.5H10.75V9.75H502.25 M223.87,387.52h0.92h29.9h0.62l0.12-0.6l17.64-88.44l23.43,0.21
			c7.37,0,12.2,1.43,14.35,4.25c2.16,2.84,2.55,7.81,1.16,14.78l-13.87,68.9l-0.18,0.9h0.92h30.33h0.61l0.12-0.6l14.52-72.16
			c3.08-16.4,0.8-27.72-6.77-33.66c-7.32-5.85-18.55-8.97-33.4-9.26h-25.95l8.27-40.48l0.18-0.9h-0.92h-29.9h-0.61l-0.12,0.6
			l-31.2,155.56L223.87,387.52 M343.94,428.69h0.91h30.12h0.61l0.12-0.6l8.11-40.56h25.38c8.84,0,17.5-1.03,25.74-3.05
			c8.33-2.05,16.25-6.93,23.53-14.5c5.96-5.96,10.67-12.74,14.01-20.14c3.49-7.41,5.77-15.06,6.78-22.74
			c2.62-16.89,0.02-30.43-7.74-40.23c-7.77-9.82-20.43-14.87-37.64-15.02h-58.06h-0.62l-0.12,0.6l-30.98,155.34L343.94,428.69
			 M87.09,428.69H88h30.12h0.61l0.12-0.6l8.11-40.56h25.38c8.84,0,17.5-1.03,25.74-3.05c8.33-2.05,16.25-6.93,23.53-14.5
			c5.96-5.96,10.67-12.74,14.01-20.14c3.49-7.41,5.77-15.06,6.78-22.74c2.62-16.89,0.02-30.43-7.74-40.23
			c-7.77-9.82-20.43-14.87-37.64-15.02h-58.06h-0.62l-0.12,0.6L87.26,427.79L87.09,428.69 M503,9H10v493h493V9L503,9z
			 M285.88,231.22l-8.45,41.38h26.87c14.73,0.29,25.71,3.32,32.93,9.1c7.37,5.78,9.53,16.76,6.5,32.93l-14.52,72.15h-30.33
			l13.87-68.9c1.44-7.22,1.01-12.35-1.3-15.38c-2.31-3.03-7.29-4.55-14.95-4.55l-24.05-0.22l-17.77,89.05h-29.9l31.2-155.56h0
			H285.88L285.88,231.22z M344.85,427.94l30.98-155.34h58.06c17.04,0.14,29.39,5.06,37.05,14.73c7.66,9.68,10.18,22.89,7.58,39.65
			c-1.01,7.66-3.25,15.17-6.72,22.53c-3.32,7.37-7.94,14.01-13.87,19.93c-7.22,7.51-14.95,12.28-23.18,14.3s-16.76,3.03-25.57,3.03
			h-26l-8.23,41.16H344.85L344.85,427.94z M88,427.94l30.98-155.34h58.06c17.04,0.14,29.39,5.06,37.05,14.73
			c7.66,9.68,10.18,22.89,7.58,39.65c-1.01,7.66-3.25,15.17-6.72,22.53c-3.32,7.37-7.94,14.01-13.87,19.93
			c-7.22,7.51-14.95,12.28-23.18,14.3c-8.23,2.02-16.76,3.03-25.57,3.03h-26l-8.23,41.16H88L88,427.94z"/>
	</g>
	<g>
		<path class="st0" d="M138.92,362.14c-0.65,0-1.3,0-1.95-0.01h-3.04c-0.71,0-1.43-0.05-2.16-0.15l12.82-64.09h4.07
			c1.58,0,3.27-0.07,5.01-0.22c0.64-0.01,1.31-0.01,1.97-0.01c10.58,0,19.57,1.09,26.71,3.25c7.55,2.24,10.09,10.91,7.54,25.79
			c-3.13,17.82-9.32,28.37-18.38,31.34C162.8,360.76,151.83,362.14,138.92,362.14C138.92,362.14,138.92,362.14,138.92,362.14z"/>
		<path d="M155.65,298.03c10.54,0,19.49,1.09,26.6,3.23c7.34,2.17,9.79,10.71,7.27,25.37c-3.11,17.68-9.21,28.12-18.12,31.05
			c-8.68,2.72-19.62,4.09-32.49,4.09c-0.64,0-1.29,0-1.95-0.01h-3.03c-0.56,0-1.13-0.03-1.71-0.1l12.68-63.4h3.76
			c1.58,0,3.27-0.07,5.02-0.22C154.34,298.04,155,298.03,155.65,298.03 M155.65,297.28c-0.66,0-1.33,0-2,0.01
			c-1.73,0.14-3.39,0.22-4.98,0.22c-1.39,0-2.85,0-4.38,0l-12.96,64.78c0.87,0.14,1.73,0.22,2.6,0.22c1.01,0,2.02,0,3.03,0
			c0.66,0.01,1.31,0.01,1.95,0.01c13,0,23.91-1.37,32.71-4.13c9.24-3.03,15.46-13.58,18.63-31.63c2.6-15.17,0-23.91-7.8-26.22
			C175.25,298.37,166.32,297.28,155.65,297.28L155.65,297.28z"/>
	</g>
</g>
</svg>
