<?xml version="1.0" encoding="utf-8"?>
<!-- Generator: Adobe Illustrator 26.0.1, SVG Export Plug-In . SVG Version: 6.00 Build 0)  -->
<svg version="1.1" id="Слой_1" xmlns="http://www.w3.org/2000/svg" xmlns:xlink="http://www.w3.org/1999/xlink" x="0px" y="0px"
	 viewBox="0 0 128 128" style="enable-background:new 0 0 128 128;" xml:space="preserve">
<style type="text/css">
	.st0{fill:#007ACD;}
</style>
<path class="st0" d="M2,1v125h125V1H2z M74.6,71.1H60.2v43.7H47.4V71.1H33V58.8h41.6V71.1z M113.2,111.3c-3.8,3.1-8.9,4.6-15,4.6
	c-5.7,0-10.5-1.2-14.3-3.7c-3.8-2.5-6.5-5.9-8.1-10.1l11-6.4c2.2,5.2,6.2,7.8,11.8,7.8c5.1,0,7.6-1.5,7.6-4.6c0-1.7-0.8-2.9-2.4-3.9
	c-1.6-0.9-4.7-2-9.2-3.2c-2.3-0.6-4.4-1.4-6.2-2.2c-1.8-0.8-3.5-1.9-5.2-3.2c-1.7-1.3-3-2.9-3.8-4.9c-0.9-2-1.3-4.2-1.3-6.8
	c0-5.2,1.9-9.3,5.6-12.4c3.7-3.1,8.1-4.6,13.2-4.6c4.6,0,8.6,1.1,12.2,3.2c3.5,2.2,6.3,5.3,8.3,9.4l-10.8,6.3
	c-1-2.1-2.3-3.7-3.8-4.8c-1.5-1.1-3.5-1.6-5.9-1.6c-1.9,0-3.4,0.4-4.4,1.2c-1,0.8-1.6,1.8-1.6,3c0,1.4,0.7,2.6,2,3.6
	c1.3,1,4,2.1,8.1,3.4c2.2,0.7,4,1.3,5.2,1.7c1.2,0.4,2.8,1.1,4.7,2.1c1.9,1,3.3,2,4.3,3.1c1,1.1,1.9,2.5,2.6,4.3
	c0.8,1.8,1.2,3.8,1.2,6.1C119,104,117,108.2,113.2,111.3z"/>
</svg>
