<?xml version="1.0" encoding="utf-8"?>
<!-- Generator: Adobe Illustrator 24.1.2, SVG Export Plug-In . SVG Version: 6.00 Build 0)  -->
<svg version="1.1" id="Layer_1" xmlns="http://www.w3.org/2000/svg" xmlns:xlink="http://www.w3.org/1999/xlink" x="0px" y="0px"
	 viewBox="0 0 122.9 122.9" style="enable-background:new 0 0 122.9 122.9;" xml:space="preserve">
<style type="text/css">
	.st0{fill:#FFFFFF;}
	.st1{fill:#32373C;}
</style>
<g>
	<path class="st0" d="M114.7,83.9c3-7.1,4.5-14.7,4.5-22.5s-1.5-15.4-4.5-22.5c-1.4-3.4-3.2-6.7-5.3-9.8c-2.1-3.1-4.4-5.9-7-8.6
		c-2.6-2.6-5.5-5-8.6-7c-3.1-2.1-6.4-3.9-9.8-5.3c-7.1-3-14.7-4.5-22.5-4.5S46.1,5.2,39,8.2c-3.4,1.4-6.7,3.2-9.8,5.3
		c-3.1,2.1-5.9,4.4-8.6,7c-2.6,2.6-5,5.5-7,8.6c-2.1,3.1-3.9,6.4-5.3,9.8c-3,7.1-4.5,14.7-4.5,22.5s1.5,15.4,4.5,22.5
		c1.4,3.4,3.2,6.7,5.3,9.8c2.1,3.1,4.4,5.9,7,8.6c2.6,2.6,5.5,5,8.6,7c3.1,2.1,6.4,3.9,9.8,5.3c7.1,3,14.7,4.5,22.5,4.5
		s15.4-1.5,22.5-4.5c3.4-1.4,6.7-3.2,9.8-5.3c3.1-2.1,5.9-4.4,8.6-7c2.6-2.6,5-5.5,7-8.6C111.4,90.6,113.2,87.3,114.7,83.9z
		 M10.2,61.4c0-7.4,1.6-14.5,4.4-20.8l24.4,66.9C22,99.2,10.2,81.7,10.2,61.4z M61.4,112.7c-5,0-9.9-0.7-14.5-2.1l15.4-44.6
		L78.1,109c0.1,0.3,0.2,0.5,0.4,0.7C73.1,111.6,67.4,112.7,61.4,112.7z M68.5,37.4c3.1-0.2,5.9-0.5,5.9-0.5c2.8-0.3,2.4-4.4-0.3-4.2
		c0,0-8.3,0.6-13.7,0.6c-5,0-13.5-0.6-13.5-0.6c-2.8-0.2-3.1,4.1-0.3,4.2c0,0,2.6,0.3,5.4,0.5l8,21.9L48.7,92.9L30.1,37.4
		c3.1-0.2,5.9-0.5,5.9-0.5c2.8-0.3,2.4-4.4-0.3-4.2c0,0-8.3,0.7-13.6,0.7c-1,0-2.1,0-3.3-0.1c9.2-13.9,24.9-23.1,42.8-23.1
		c13.3,0,25.5,5.1,34.6,13.4c-0.2,0-0.4,0-0.7,0c-5,0-8.6,4.4-8.6,9.1c0,4.2,2.4,7.8,5,12c1.9,3.4,4.2,7.8,4.2,14.1
		c0,4.4-1.4,9.6-3.7,16.9L87,92.5L68.5,37.4z M87.2,105.7l15.6-45.2c2.9-7.3,3.9-13.1,3.9-18.3c0-1.9-0.1-3.6-0.3-5.3
		c4,7.3,6.3,15.7,6.3,24.6C112.6,80.3,102.4,96.8,87.2,105.7z"/>
	<path class="st1" d="M61.4,0C27.5,0,0,27.5,0,61.4s27.5,61.4,61.4,61.4s61.4-27.5,61.4-61.4S95.4,0,61.4,0z M93.7,109.3
		c-3.1,2.1-6.4,3.9-9.8,5.3c-7.1,3-14.7,4.5-22.5,4.5s-15.4-1.5-22.5-4.5c-3.4-1.5-6.7-3.2-9.8-5.3c-3.1-2.1-5.9-4.4-8.6-7
		c-2.6-2.6-5-5.5-7-8.6c-2.1-3.1-3.9-6.4-5.3-9.8c-3-7.1-4.5-14.7-4.5-22.5S5.2,46.1,8.2,39c1.5-3.4,3.2-6.7,5.3-9.8
		c2.1-3.1,4.4-5.9,7-8.6c2.6-2.6,5.5-5,8.6-7c3.1-2.1,6.4-3.9,9.8-5.3c7.1-3,14.7-4.5,22.5-4.5s15.4,1.5,22.5,4.5
		c3.4,1.5,6.7,3.2,9.8,5.3c3.1,2.1,5.9,4.4,8.6,7c2.6,2.6,5,5.5,7,8.6c2.1,3.1,3.9,6.4,5.3,9.8c3,7.1,4.5,14.7,4.5,22.5
		s-1.5,15.4-4.5,22.5c-1.5,3.4-3.2,6.7-5.3,9.8c-2.1,3.1-4.4,5.9-7,8.6C99.7,104.9,96.8,107.3,93.7,109.3z"/>
	<path class="st1" d="M96,58.9c0-6.3-2.3-10.7-4.2-14.1c-2.6-4.2-5-7.8-5-12c0-4.7,3.6-9.1,8.6-9.1c0.2,0,0.4,0,0.7,0
		c-9.1-8.3-21.3-13.4-34.6-13.4c-17.9,0-33.6,9.2-42.8,23.1c1.2,0,2.3,0.1,3.3,0.1c5.3,0,13.6-0.7,13.6-0.7c2.8-0.2,3.1,3.9,0.3,4.2
		c0,0-2.8,0.3-5.9,0.5l18.6,55.5l11.2-33.6l-8-21.9c-2.8-0.2-5.4-0.5-5.4-0.5c-2.8-0.2-2.4-4.4,0.3-4.2c0,0,8.4,0.6,13.5,0.6
		c5.3,0,13.7-0.6,13.7-0.6c2.8-0.2,3.1,3.9,0.3,4.2c0,0-2.8,0.3-5.9,0.5l18.5,55l5.3-16.7C94.6,68.4,96,63.2,96,58.9z"/>
	<path class="st1" d="M106.4,36.9c0.2,1.6,0.3,3.4,0.3,5.3c0,5.2-1,11-3.9,18.3l-15.6,45.2c15.2-8.9,25.5-25.4,25.5-44.3
		C112.6,52.5,110.4,44.2,106.4,36.9z"/>
	<path class="st1" d="M10.2,61.4c0,20.3,11.8,37.8,28.9,46.1L14.7,40.6C11.8,47,10.2,54,10.2,61.4z"/>
	<path class="st1" d="M62.3,65.9L47,110.6c4.6,1.3,9.4,2.1,14.5,2.1c6,0,11.7-1,17-2.9c-0.1-0.2-0.3-0.5-0.4-0.7L62.3,65.9z"/>
</g>
</svg>
